<?xml version="1.0" encoding="UTF-8"?>
<svg width="1960px" height="300px" viewBox="0 0 1960 300" version="1.1" xmlns="http://www.w3.org/2000/svg" xmlns:xlink="http://www.w3.org/1999/xlink">
    <!-- Generator: Sketch 52.5 (67469) - http://www.bohemiancoding.com/sketch -->
    <title>MuCollabo Blog</title>
    <desc>Created with Sketch.</desc>
    <defs>
        <polygon id="path-1" points="0.280140399 0.227015385 103.898687 0.227015385 103.898687 101.714923 0.280140399 101.714923"></polygon>
        <polygon id="path-3" points="0 0.586121324 270.561766 0.586121324 270.561766 299.610018 0 299.610018"></polygon>
        <path d="M79.9849757,4.66991374 L38.5350491,33.3387366 C-21.4124345,72.9662904 -7.24136269,136.272531 53.8060747,162.13051 L81.2682552,171.763875 L109.133752,161.997084 L116.55844,159.373037 C175.460968,134.36009 190.512003,74.4695578 137.072579,34.8686893 C135.880963,34.0058671 134.671013,33.1697302 133.433565,32.3158031 C133.039415,32.066741 132.700263,31.7998888 132.306113,31.5330366 L131.352819,30.8836962 L93.3677473,4.66991374 L86.658029,0.0622655166 L79.9849757,4.66991374 Z" id="path-5"></path>
        <linearGradient x1="82.407%" y1="58.673%" x2="12.936%" y2="58.673%" id="linearGradient-7">
            <stop stop-color="#A47AFB" offset="0%"></stop>
            <stop stop-color="#7690FD" offset="51.822%"></stop>
            <stop stop-color="#7BB1F3" offset="100%"></stop>
        </linearGradient>
    </defs>
    <g id="MuCollabo-Blog" stroke="none" stroke-width="1" fill="none" fill-rule="evenodd">
        <g id="logo">
            <path d="M613.333305,94.0355845 L564.427224,191.448189 L514.392541,94.3024684 L502.280716,94.3291567 L481.910828,236 L508.272399,235.919935 L518.806016,158.61258 L558.664931,235.786493 L570.363853,235.759805 L609.195098,159.012906 L620.215024,235.626363 L646.934444,235.546297 L625.44513,94 L613.333305,94.0355845 Z M733.763383,175.986718 C733.809262,191.110137 732.708187,195.842877 732.203527,197.266257 C730.827183,201.322892 728.349765,204.507706 724.661163,207.02531 C720.880806,209.578499 716.283818,210.815061 710.59493,210.841749 C704.823462,210.841749 700.098015,209.578499 696.12497,206.945245 C692.393308,204.523352 689.67123,200.894111 688.444972,196.705801 C687.738448,194.330535 686.894291,188.832728 686.848413,176.12016 L686.710778,125.207618 L660.624476,125.287683 L660.771286,177.579125 C660.807989,192.168776 662.58806,202.995364 666.212432,210.637138 C669.777131,218.361471 675.715133,224.830082 683.214865,229.158877 C690.637946,233.4735 699.868625,235.653051 710.65916,235.617466 C721.412992,235.590778 730.570266,233.35785 737.929117,229.007643 C745.298052,224.653356 751.147966,218.253299 754.720511,210.637138 C758.335707,203.057637 760.079076,192.462348 760.042374,178.255231 L759.886388,125.020799 L733.616573,125.083072 L733.763383,175.986718 Z M892.676033,201.171658 C880.472452,215.058514 865.029875,222.12204 846.761206,222.16652 C830.1625,222.211001 816.224726,217.504949 805.305732,208.146222 C794.432616,198.805288 788.890539,186.279539 788.84466,170.924821 C788.817134,160.712066 791.267025,151.39782 796.120931,143.257862 C800.984012,135.100113 807.902434,128.525874 816.729385,123.677484 C825.576054,118.829629 835.571641,116.297247 845.733536,116.329282 C855.230307,116.302594 864.066434,118.1263 872.00335,121.75592 C880.064848,125.499573 887.079555,131.067938 892.455818,137.991354 L892.960478,138.631876 L904.815385,130.02932 L904.329077,129.379902 C897.881597,120.72552 889.318335,113.758947 879.408079,109.105626 C869.333243,104.337301 857.900414,101.935346 845.412389,101.962035 C824.840637,102.015412 807.462004,108.651923 793.771971,121.684751 C780.081939,134.699787 773.163517,150.917429 773.218571,169.839494 C773.264449,185.977071 779.035917,200.611202 790.367814,213.341561 C803.947739,228.402706 822.67519,235.991104 846.091385,235.937727 C858.304142,235.902143 869.553458,233.606941 879.509011,229.087708 C889.311255,224.701344 897.89489,218.114357 904.549292,209.872071 L905.063127,209.23155 L893.171517,200.584513 L892.676033,201.171658 Z M1002.33393,204.320887 C999.230698,209.95668 994.565469,214.640022 988.86411,217.843002 C983.116037,221.000401 976.614573,222.641438 970.008201,222.602431 C963.449768,222.663076 956.989514,221.0558 951.271575,217.94086 C945.520198,214.780714 940.794355,210.124873 937.62742,204.49881 C934.285103,198.728608 932.531325,192.221295 932.534948,185.603433 C932.507421,175.221651 936.186847,166.245458 943.49982,158.906152 C950.794442,151.566846 959.639745,147.830472 969.787986,147.794888 C979.945403,147.777096 988.818232,151.460093 996.158732,158.763814 C1003.49923,166.058639 1007.24289,175.025937 1007.27959,185.407718 C1007.31819,192.018576 1005.61255,198.529194 1002.32475,204.320887 L1002.33393,204.320887 Z M969.751283,134.219396 C954.492219,134.263877 941.664695,139.734996 931.60821,150.552688 C922.533517,160.382909 917.95488,172.143591 917.991583,185.469991 C918.037461,198.86756 922.94642,210.717203 932.580826,220.707555 C942.242759,230.733492 954.850068,235.786493 970.044903,235.750908 C985.184685,235.706428 997.755291,230.582258 1007.3897,220.511841 C1016.99658,210.459216 1021.85966,198.573988 1021.81378,185.194211 C1021.77708,171.814434 1017.13421,160.044857 1007.98611,150.232427 C997.874574,139.574865 985.010348,134.174915 969.760459,134.219396 L969.751283,134.219396 Z M1035.31112,235.982208 L1049.67098,235.937727 L1049.30395,102.406841 L1034.92575,102.442426 L1035.31112,235.982208 Z M1136.48157,204.77459 C1132.71038,198.565092 1130.7835,192.035334 1130.76515,185.327653 C1130.73762,174.963664 1134.41705,165.969678 1141.72085,158.630372 C1149.02464,151.291066 1157.86995,147.545796 1168.02736,147.519108 C1178.17561,147.492419 1186.9475,151.175417 1194.10449,158.488034 C1196.96729,161.405964 1199.24284,164.537401 1200.83022,167.686631 C1203.13331,174.919183 1204.04169,182.587646 1203.55538,190.5052 C1193.98521,215.521113 1178.27654,225.31575 1155.72285,220.529633 C1146.71239,216.259491 1140.24357,210.948503 1136.48157,204.783486 L1136.48157,204.77459 Z M1206.21632,149.983335 C1196.10478,139.290189 1183.24055,133.908032 1167.98149,133.943616 C1152.72242,133.988097 1139.88572,139.477008 1129.83841,150.276908 C1120.75454,160.116026 1116.17591,171.858915 1116.22179,185.203107 C1116.25849,198.582884 1121.17662,210.441423 1130.81103,220.449568 C1140.46379,230.448816 1153.0711,235.510713 1168.33934,235.466232 C1185.62621,234.016163 1198.08671,227.584263 1205.40886,216.375141 L1205.47309,235.804285 L1220.3009,235.759805 L1220.43853,235.137076 C1220.50276,234.852399 1220.62205,234.256359 1220.31008,184.909535 C1220.27337,171.476381 1215.53875,159.706804 1206.20714,149.974439 L1206.21632,149.983335 Z M1323.24224,184.607067 C1323.26922,191.225619 1321.50371,197.735083 1318.12224,203.484651 C1314.8544,209.202121 1310.07946,213.9759 1304.2854,217.318131 C1298.5231,220.618594 1292.09099,222.299962 1285.17257,222.317755 C1274.61142,222.353339 1265.52756,218.732615 1258.18706,211.553439 C1250.84656,204.347575 1247.1029,195.23794 1247.0662,184.464729 C1247.04785,177.463476 1248.68111,171.031575 1251.92928,165.373637 C1255.17916,159.687967 1260.01193,155.002411 1265.87623,151.851522 C1271.73964,148.582404 1278.38129,146.852981 1285.14504,146.834106 C1291.75149,146.816314 1298.08267,148.462097 1303.91837,151.744769 C1309.82036,155.082532 1314.67841,159.909437 1317.97543,165.71169 C1321.45299,171.707681 1323.21471,178.059516 1323.24224,184.607067 Z M1286.35622,134.112643 C1278.7722,134.063735 1271.27716,135.697836 1264.44483,138.889863 C1258.42562,141.754417 1252.84684,146.015662 1247.88283,151.566846 L1247.72684,99.8714447 L1233.53215,99.9159253 L1233.80742,190.923318 C1234.9085,199.392432 1238.2209,208.092846 1243.74462,216.926701 C1249.72713,223.394186 1256.35193,228.180303 1263.43551,231.169402 C1270.52827,234.158501 1278.20827,235.661947 1286.28282,235.635259 C1300.41328,235.60857 1312.62604,230.591154 1322.61829,220.74314 C1332.61055,210.88623 1337.64797,198.849768 1337.61127,184.9896 C1337.56539,170.915925 1332.48209,158.77271 1322.50819,148.924696 C1312.52511,139.049994 1300.3674,134.085954 1286.35622,134.112643 Z" id="Shape" fill="#1B1B20" fill-rule="nonzero"></path>
            <g id="Group" transform="translate(1350.997877, 132.000000)">
                <g id="Clipped">
                    <mask id="mask-2" fill="white">
                        <use xlink:href="#path-1"></use>
                    </mask>
                    <g id="a"></g>
                    <path d="M89.3917239,51.3844615 C89.4317577,57.9983043 87.7293168,64.5122338 84.4461684,70.3072923 C81.3572197,75.9437005 76.7025993,80.6263419 71.0107426,83.8236 C65.2746674,86.9815979 58.7840191,88.6192085 52.1901563,88.5720923 C45.6389892,88.6403352 39.1851221,87.0300451 33.4794713,83.9036308 C27.7436093,80.7527356 23.0320199,76.1041227 19.8791937,70.4851385 C16.543138,64.7174152 14.7926448,58.2128969 14.7962617,51.5978769 C14.7596279,41.2294462 18.4504777,32.2482154 25.7314344,24.9120615 C33.0215495,17.5670154 41.850282,13.8322462 51.9886707,13.8055692 C62.1270595,13.7788923 70.9741088,17.4692 78.3008577,24.752 C85.6276066,32.0614769 89.3550901,41.0249231 89.3917239,51.3844615 M90.1060819,16.2509538 L90.1060819,16.2420615 C80.0043268,5.58018462 67.155041,0.191446154 51.9337201,0.227015385 C36.7032409,0.271476923 23.8905887,5.75803077 13.8712596,16.5621846 C4.80440784,26.3881846 0.234348218,38.1349231 0.270981963,51.4644923 C0.307615707,64.8563077 5.21653747,76.6919692 14.8328954,86.6869231 C24.4675702,96.7085538 37.0512614,101.759385 52.2267901,101.714923 C67.3473681,101.679354 79.8852672,96.5573846 89.4833082,86.4912923 C99.0996662,76.4429846 103.93532,64.5539692 103.898687,51.1799385 C103.852895,37.8148 99.2278843,26.0502769 90.0969235,16.2509538" id="Shape" fill="#1B1B20" fill-rule="nonzero" mask="url(#mask-2)"></path>
                </g>
            </g>
            <polygon id="Path" fill="#1B1B20" points="1074.48266 238 1088.41826 237.955203 1087.92882 67 1074.00212 67.0358378"></polygon>
            <path d="M373.978865,253.39243 L347.43857,80.5438367 L340.400669,34.6773139 C334.566619,-3.3352912 310.721099,-8.18492937 278.689388,15.1717839 L250.22293,34.63274 L270.919916,48.7894044 C285.866195,58.5689137 298.802969,69.2042415 309.683934,80.5438367 C339.687618,111.790127 353.874545,148.28722 350.170387,186.487035 C346.52179,223.955839 325.48217,258.661062 291.533558,285.414305 L318.046072,294.614354 C354.652418,309.947769 379.812915,291.405035 373.978865,253.39243" id="Path" fill="#A47AFB"></path>
            <path d="M248.896127,87.8630022 L238.976145,81.0287374 L211.378719,62 L200.796178,69.2898825 L217.700637,81.0287374 L243.199959,98.7263566 C273.880126,119.10408 289.257018,146.307134 286.47795,175.314791 C283.597659,205.412358 260.914212,232.293799 225.798581,247.213044 L202.894282,255.306958 L230.592932,265 C272.186919,246.471549 299.002157,214.739119 302.370166,179.665493 C305.673759,145.395898 286.689601,112.787968 248.905329,87.8630022" id="Path" fill="#A47AFB"></path>
            <path d="M284.912026,79.8664028 C277.346721,73.2084525 269.308302,67.0774738 260.856534,61.51905 L235.500745,44 L223.450106,52.3275606 L256.571048,75.2172192 C258.860303,76.7491341 261.094616,78.281049 263.26483,79.8664028 C300.808613,107.057892 319.488934,142.193963 315.899382,179.503216 C312.410557,215.734785 287.668289,248.564077 248.686854,269.770411 L272.165453,278 C306.96213,253.284513 328.664268,220.063335 332.107308,184.205839 C335.751802,146.38001 319.13181,110.095002 284.912026,79.8664028" id="Path" fill="#A47AFB"></path>
            <g id="Group">
                <g id="Clipped">
                    <mask id="mask-4" fill="white">
                        <use xlink:href="#path-3"></use>
                    </mask>
                    <g id="c"></g>
                    <path d="M237.599554,113.072243 C236.406601,112.207445 235.204471,111.369393 233.956458,110.522426 C233.571043,110.254963 233.222333,109.9875 232.827741,109.720037 L231.882555,109.06921 L193.836528,82.8043199 L187.137637,78.1861213 L95.2710709,14.7616728 C63.520165,-8.60569853 39.8905168,-3.74678309 34.1092825,34.2775735 L26.7221497,82.8043199 L0.825890616,253.000092 C-4.9553437,291.006618 19.9865529,309.559651 56.2523275,294.216176 L181.732642,250.263051 L209.629392,240.482812 L217.062407,237.861673 C276.04935,212.782537 291.117266,152.772702 237.599554,113.072243" id="Path" fill="#7BB1F3" mask="url(#mask-4)"></path>
                </g>
            </g>
            <g id="Group" transform="translate(101.942675, 79.000000)">
                <g id="Clipped">
                    <mask id="mask-6" fill="white">
                        <use xlink:href="#path-5"></use>
                    </mask>
                    <g id="e"></g>
                    <path d="M79.9849757,4.66991374 L38.5350491,33.3387366 C-21.4124345,72.9662904 -7.24136269,136.272531 53.8060747,162.13051 L81.2682552,171.763875 L109.133752,161.997084 L116.55844,159.373037 C175.460968,134.36009 190.512003,74.4695578 137.072579,34.8686893 C135.880963,34.0058671 134.671013,33.1697302 133.433565,32.3158031 C133.039415,32.066741 132.700263,31.7998888 132.306113,31.5330366 L131.352819,30.8836962 L93.3677473,4.66991374 L86.658029,0.0622655166 L79.9849757,4.66991374 Z" id="Path" fill="url(#linearGradient-7)" mask="url(#mask-6)"></path>
                </g>
            </g>
        </g>
        <text id="blog" font-family="STHeitiSC-Medium, Heiti SC" font-size="182" font-weight="bold" fill="#1B1B20">
            <tspan x="1505.89" y="241">blog</tspan>
        </text>
    </g>
</svg>